<svg width="1200" height="420" viewBox="0 0 1200 420" xmlns="http://www.w3.org/2000/svg"><defs>
  <linearGradient id="bg" x1="0" y1="0" x2="1" y2="1">
    <stop offset="0" stop-color="#171E2B"/><stop offset="1" stop-color="#0C0F16"/>
  </linearGradient>
  <linearGradient id="amb" x1="0" y1="0" x2="0" y2="1">
    <stop offset="0" stop-color="#FFD08A"/><stop offset="1" stop-color="#F2871E"/>
  </linearGradient>
  <radialGradient id="glow" cx="0.78" cy="0.2" r="0.7">
    <stop offset="0" stop-color="#FFB454" stop-opacity="0.16"/>
    <stop offset="1" stop-color="#FFB454" stop-opacity="0"/>
  </radialGradient>
</defs><rect width="1200" height="420" fill="url(#bg)"/><rect width="1200" height="420" fill="url(#glow)"/><line x1="0" y1="0" x2="0" y2="420" stroke="#FFFFFF" stroke-opacity="0.025"/><line x1="40" y1="0" x2="40" y2="420" stroke="#FFFFFF" stroke-opacity="0.025"/><line x1="80" y1="0" x2="80" y2="420" stroke="#FFFFFF" stroke-opacity="0.025"/><line x1="120" y1="0" x2="120" y2="420" stroke="#FFFFFF" stroke-opacity="0.025"/><line x1="160" y1="0" x2="160" y2="420" stroke="#FFFFFF" stroke-opacity="0.025"/><line x1="200" y1="0" x2="200" y2="420" stroke="#FFFFFF" stroke-opacity="0.025"/><line x1="240" y1="0" x2="240" y2="420" stroke="#FFFFFF" stroke-opacity="0.025"/><line x1="280" y1="0" x2="280" y2="420" stroke="#FFFFFF" stroke-opacity="0.025"/><line x1="320" y1="0" x2="320" y2="420" stroke="#FFFFFF" stroke-opacity="0.025"/><line x1="360" y1="0" x2="360" y2="420" stroke="#FFFFFF" stroke-opacity="0.025"/><line x1="400" y1="0" x2="400" y2="420" stroke="#FFFFFF" stroke-opacity="0.025"/><line x1="440" y1="0" x2="440" y2="420" stroke="#FFFFFF" stroke-opacity="0.025"/><line x1="480" y1="0" x2="480" y2="420" stroke="#FFFFFF" stroke-opacity="0.025"/><line x1="520" y1="0" x2="520" y2="420" stroke="#FFFFFF" stroke-opacity="0.025"/><line x1="560" y1="0" x2="560" y2="420" stroke="#FFFFFF" stroke-opacity="0.025"/><line x1="600" y1="0" x2="600" y2="420" stroke="#FFFFFF" stroke-opacity="0.025"/><line x1="640" y1="0" x2="640" y2="420" stroke="#FFFFFF" stroke-opacity="0.025"/><line x1="680" y1="0" x2="680" y2="420" stroke="#FFFFFF" stroke-opacity="0.025"/><line x1="720" y1="0" x2="720" y2="420" stroke="#FFFFFF" stroke-opacity="0.025"/><line x1="760" y1="0" x2="760" y2="420" stroke="#FFFFFF" stroke-opacity="0.025"/><line x1="800" y1="0" x2="800" y2="420" stroke="#FFFFFF" stroke-opacity="0.025"/><line x1="840" y1="0" x2="840" y2="420" stroke="#FFFFFF" stroke-opacity="0.025"/><line x1="880" y1="0" x2="880" y2="420" stroke="#FFFFFF" stroke-opacity="0.025"/><line x1="920" y1="0" x2="920" y2="420" stroke="#FFFFFF" stroke-opacity="0.025"/><line x1="960" y1="0" x2="960" y2="420" stroke="#FFFFFF" stroke-opacity="0.025"/><line x1="1000" y1="0" x2="1000" y2="420" stroke="#FFFFFF" stroke-opacity="0.025"/><line x1="1040" y1="0" x2="1040" y2="420" stroke="#FFFFFF" stroke-opacity="0.025"/><line x1="1080" y1="0" x2="1080" y2="420" stroke="#FFFFFF" stroke-opacity="0.025"/><line x1="1120" y1="0" x2="1120" y2="420" stroke="#FFFFFF" stroke-opacity="0.025"/><line x1="1160" y1="0" x2="1160" y2="420" stroke="#FFFFFF" stroke-opacity="0.025"/><line x1="0" y1="0" x2="1200" y2="0" stroke="#FFFFFF" stroke-opacity="0.025"/><line x1="0" y1="40" x2="1200" y2="40" stroke="#FFFFFF" stroke-opacity="0.025"/><line x1="0" y1="80" x2="1200" y2="80" stroke="#FFFFFF" stroke-opacity="0.025"/><line x1="0" y1="120" x2="1200" y2="120" stroke="#FFFFFF" stroke-opacity="0.025"/><line x1="0" y1="160" x2="1200" y2="160" stroke="#FFFFFF" stroke-opacity="0.025"/><line x1="0" y1="200" x2="1200" y2="200" stroke="#FFFFFF" stroke-opacity="0.025"/><line x1="0" y1="240" x2="1200" y2="240" stroke="#FFFFFF" stroke-opacity="0.025"/><line x1="0" y1="280" x2="1200" y2="280" stroke="#FFFFFF" stroke-opacity="0.025"/><line x1="0" y1="320" x2="1200" y2="320" stroke="#FFFFFF" stroke-opacity="0.025"/><line x1="0" y1="360" x2="1200" y2="360" stroke="#FFFFFF" stroke-opacity="0.025"/><line x1="0" y1="400" x2="1200" y2="400" stroke="#FFFFFF" stroke-opacity="0.025"/><g transform="translate(880,210) scale(1.5)"><rect x="-71" y="-16" width="10" height="32" rx="3" fill="#39435A"/><rect x="-49" y="-30" width="10" height="60" rx="3" fill="#8C96AB"/><rect x="-27" y="-54" width="10" height="108" rx="3" fill="#8C96AB"/><rect x="-5" y="-84" width="10" height="168" rx="3" fill="url(#amb)"/><rect x="17" y="-54" width="10" height="108" rx="3" fill="#8C96AB"/><rect x="39" y="-30" width="10" height="60" rx="3" fill="#8C96AB"/><rect x="61" y="-16" width="10" height="32" rx="3" fill="#39435A"/></g><text x="70" y="200" font-family="JetBrains Mono,monospace" font-size="15" letter-spacing="6" fill="#FFB454">ECHOZLAB</text><text x="68" y="262" font-family="Space Grotesk,Arial,sans-serif" font-size="54" font-weight="700" fill="#E9EDF5" letter-spacing="-1">PC COMPONENTS</text><text x="70" y="300" font-family="JetBrains Mono,monospace" font-size="14" letter-spacing="3" fill="#8C96AB">Reviews · rankings · buying guides</text></svg>